<mxfile modified="2021-04-30T14:01:04.020Z" host="app.diagrams.net" agent="5.0 (Macintosh; Intel Mac OS X 10_15_7) AppleWebKit/537.36 (KHTML, like Gecko) Chrome/90.0.4430.85 Safari/537.36" etag="QGruvpQ9d_D3_riiMIFP" version="14.6.6" type="github">
  <diagram id="Ht1M8jgEwFfnCIfOTk4-" name="Page-1">
    <mxGraphModel dx="2355" dy="618" grid="1" gridSize="10" guides="1" tooltips="1" connect="1" arrows="1" fold="1" page="1" pageScale="1" pageWidth="1169" pageHeight="827" math="0" shadow="0">
      <root>
        <mxCell id="0" />
        <mxCell id="1" parent="0" />
        <mxCell id="UEzPUAAOIrF-is8g5C7q-109" value="CLI&lt;br&gt;" style="outlineConnect=0;gradientColor=none;fontColor=#545B64;strokeColor=none;fillColor=#879196;dashed=0;verticalLabelPosition=bottom;verticalAlign=top;align=center;html=1;fontSize=12;fontStyle=0;aspect=fixed;shape=mxgraph.aws4.illustration_desktop;pointerEvents=1;labelBackgroundColor=#ffffff;" parent="1" vertex="1">
          <mxGeometry x="90" y="509.44" width="100" height="91" as="geometry" />
        </mxCell>
        <mxCell id="eIOd0SFCmoOq624Lqe8P-1" value="Cloud" style="ellipse;shape=cloud;whiteSpace=wrap;html=1;align=center;" vertex="1" parent="1">
          <mxGeometry x="910" y="470" width="201.5" height="149.5" as="geometry" />
        </mxCell>
        <mxCell id="eIOd0SFCmoOq624Lqe8P-2" value="Deployment Process" style="text;html=1;align=center;verticalAlign=middle;resizable=0;points=[];autosize=1;strokeColor=none;" vertex="1" parent="1">
          <mxGeometry x="470" y="450" width="130" height="20" as="geometry" />
        </mxCell>
        <mxCell id="eIOd0SFCmoOq624Lqe8P-3" value="" style="rounded=0;whiteSpace=wrap;html=1;" vertex="1" parent="1">
          <mxGeometry x="260" y="489.5" width="600" height="130" as="geometry" />
        </mxCell>
        <mxCell id="eIOd0SFCmoOq624Lqe8P-4" value="Build Process" style="rounded=1;whiteSpace=wrap;html=1;" vertex="1" parent="1">
          <mxGeometry x="280" y="519" width="120" height="60" as="geometry" />
        </mxCell>
        <mxCell id="eIOd0SFCmoOq624Lqe8P-5" value="Deployment Process" style="rounded=1;whiteSpace=wrap;html=1;" vertex="1" parent="1">
          <mxGeometry x="420" y="519" width="130" height="60" as="geometry" />
        </mxCell>
        <mxCell id="eIOd0SFCmoOq624Lqe8P-6" value="Config Storage" style="rounded=1;whiteSpace=wrap;html=1;" vertex="1" parent="1">
          <mxGeometry x="570" y="519" width="120" height="60" as="geometry" />
        </mxCell>
        <mxCell id="eIOd0SFCmoOq624Lqe8P-7" value="core deploy" style="text;html=1;strokeColor=none;fillColor=none;align=center;verticalAlign=middle;whiteSpace=wrap;rounded=0;" vertex="1" parent="1">
          <mxGeometry x="440" y="489.44" width="230" height="20" as="geometry" />
        </mxCell>
        <mxCell id="eIOd0SFCmoOq624Lqe8P-8" value="" style="edgeStyle=orthogonalEdgeStyle;html=1;endArrow=block;elbow=vertical;startArrow=block;startFill=1;endFill=1;strokeColor=#545B64;rounded=0;" edge="1" parent="1" source="UEzPUAAOIrF-is8g5C7q-109">
          <mxGeometry width="100" relative="1" as="geometry">
            <mxPoint x="540" y="639" as="sourcePoint" />
            <mxPoint x="258" y="555" as="targetPoint" />
          </mxGeometry>
        </mxCell>
        <mxCell id="eIOd0SFCmoOq624Lqe8P-9" value="" style="edgeStyle=orthogonalEdgeStyle;html=1;endArrow=block;elbow=vertical;startArrow=block;startFill=1;endFill=1;strokeColor=#545B64;rounded=0;exitX=1;exitY=0.5;exitDx=0;exitDy=0;entryX=0.196;entryY=0.565;entryDx=0;entryDy=0;entryPerimeter=0;" edge="1" parent="1" source="eIOd0SFCmoOq624Lqe8P-3" target="eIOd0SFCmoOq624Lqe8P-1">
          <mxGeometry width="100" relative="1" as="geometry">
            <mxPoint x="540" y="639" as="sourcePoint" />
            <mxPoint x="640" y="639" as="targetPoint" />
          </mxGeometry>
        </mxCell>
        <mxCell id="eIOd0SFCmoOq624Lqe8P-11" value="Secrets Deployment" style="rounded=1;whiteSpace=wrap;html=1;" vertex="1" parent="1">
          <mxGeometry x="720" y="519" width="120" height="60" as="geometry" />
        </mxCell>
        <mxCell id="eIOd0SFCmoOq624Lqe8P-12" value="&lt;h1&gt;CORE&lt;/h1&gt;&lt;p&gt;As Expression(s): JAMstack Deployment + Ease of Use FaaS // static site deployment + serverless functions&lt;br&gt;&lt;br&gt;One Sentence: A lightweight framework that builds and deploys static sites&amp;nbsp;onto a user&#39;s AWS account and easily creates serverless functions(lambdas) with custom environment variables for each function.&lt;/p&gt;" style="text;html=1;strokeColor=none;fillColor=none;spacing=5;spacingTop=-20;whiteSpace=wrap;overflow=hidden;rounded=0;align=center;" vertex="1" parent="1">
          <mxGeometry x="140" y="20" width="800" height="90" as="geometry" />
        </mxCell>
        <mxCell id="eIOd0SFCmoOq624Lqe8P-13" value="Implied Use Cases :&amp;nbsp;&lt;br&gt;- a developer who does not want to manage servers but needs to perform some computations from their front end code&lt;br&gt;- A developer who needs to have serverless functions that have environment variables that are secured(on their infrastructure)&lt;br&gt;- A developer who does not want to go through the hastle of setting up all of the AWS infrastructure to deploy static sites(and lambdas) while also redirecting calls to serverless function using edge lambdas (all while keeping the s3 bucket private)&lt;br&gt;- A developer who wants an easy static site deployment process(like netlify or vercel) while maintaining the ability to customize certain settings using the aws account" style="text;html=1;strokeColor=none;fillColor=none;align=center;verticalAlign=middle;whiteSpace=wrap;rounded=0;" vertex="1" parent="1">
          <mxGeometry x="281.5" y="280" width="830" height="20" as="geometry" />
        </mxCell>
        <mxCell id="eIOd0SFCmoOq624Lqe8P-14" value="What is it like?&lt;br&gt;think of it as a simplified version of the easy deployment of static sites(JAMstack Apps) with serverless functions(netlify/vercel/amplify) and the ability to customize because everything is on your aws infrastructure" style="text;html=1;align=center;verticalAlign=middle;resizable=0;points=[];autosize=1;strokeColor=none;" vertex="1" parent="1">
          <mxGeometry x="-30" y="140" width="1130" height="30" as="geometry" />
        </mxCell>
        <mxCell id="eIOd0SFCmoOq624Lqe8P-15" style="edgeStyle=orthogonalEdgeStyle;rounded=0;orthogonalLoop=1;jettySize=auto;html=1;exitX=0.5;exitY=1;exitDx=0;exitDy=0;" edge="1" parent="1" source="eIOd0SFCmoOq624Lqe8P-13" target="eIOd0SFCmoOq624Lqe8P-13">
          <mxGeometry relative="1" as="geometry" />
        </mxCell>
        <mxCell id="eIOd0SFCmoOq624Lqe8P-16" value="what is the main use case?&lt;br&gt;&amp;nbsp;A JAMstack developer who needs the ability to define &quot;backend&quot;(compute) capabilities without dealing with servers" style="text;html=1;align=center;verticalAlign=middle;resizable=0;points=[];autosize=1;strokeColor=none;" vertex="1" parent="1">
          <mxGeometry x="350" y="200" width="630" height="30" as="geometry" />
        </mxCell>
        <mxCell id="eIOd0SFCmoOq624Lqe8P-17" value="How is it different from netlify/vercel, or amplify?&lt;br&gt;- simplified(not as many features)&lt;br&gt;- currently only from cli&lt;br&gt;- tested with react apps(but could do more)&lt;br&gt;- keeps everything on user&#39;s infrastructure()&lt;br&gt;- provisions less resources that amplify" style="text;html=1;align=center;verticalAlign=middle;resizable=0;points=[];autosize=1;strokeColor=none;" vertex="1" parent="1">
          <mxGeometry x="-20" y="220" width="270" height="90" as="geometry" />
        </mxCell>
      </root>
    </mxGraphModel>
  </diagram>
</mxfile>
